Coordinates
version=1
nRows=13
nColumns=40
inDegrees=yes

Units are S.I. units (second, meters, Newtons, ...)
If the header above contains a line with 'inDegrees', this indicates whether rotational values are in degrees (yes) or radians (no).

endheader
time	pelvis_tilt	pelvis_list	pelvis_rotation	pelvis_tx	pelvis_ty	pelvis_tz	hip_flexion_r	hip_adduction_r	hip_rotation_r	knee_angle_r	knee_angle_r_beta	ankle_angle_r	subtalar_angle_r	mtp_angle_r	hip_flexion_l	hip_adduction_l	hip_rotation_l	knee_angle_l	knee_angle_l_beta	ankle_angle_l	subtalar_angle_l	mtp_angle_l	lumbar_extension	lumbar_bending	lumbar_rotation	arm_flex_r	arm_add_r	arm_rot_r	elbow_flex_r	pro_sup_r	wrist_flex_r	wrist_dev_r	arm_flex_l	arm_add_l	arm_rot_l	elbow_flex_l	pro_sup_l	wrist_flex_l	wrist_dev_l
      4.59500000	    -39.28281371	      2.27382449	      2.06294901	      0.07940062	      0.60508042	     -1.15661772	    105.37033995	    -45.70717879	     -0.49543048	     89.34458878	      1.55935724	     20.88933806	      7.33416366	      0.00000000	    101.67777791	    -40.51693347	     -4.93950922	     82.65217568	      1.44255260	     16.36892531	     18.26425793	      0.00000000	      0.00000000	      0.00000000	      0.00000000	     44.91037840	    -15.12321539	     44.91037840	     74.99831748	     44.99998671	      0.00000000	      0.00000000	     44.91037840	    -15.12321539	     44.91037840	     74.99831748	     44.99998671	      0.00000000	      0.00000000
      4.60000000	    -39.78060181	      2.23062482	      2.40612334	      0.07875776	      0.60260827	     -1.15737755	    106.35013093	    -46.09498006	     -0.08195807	     89.60972289	      1.56398471	     20.73011907	      7.62080077	      0.00000000	    102.45760955	    -40.06302543	     -4.68664372	     82.83822727	      1.44579981	     16.32688387	     18.21340500	      0.00000000	      0.00000000	      0.00000000	      0.00000000	     44.91167740	    -15.12043381	     44.91167740	     74.99838948	     44.99998773	      0.00000000	      0.00000000	     44.91167740	    -15.12043381	     44.91167740	     74.99838948	     44.99998773	      0.00000000	      0.00000000
      4.60500000	    -39.81949609	      2.24250339	      2.39020406	      0.07864616	      0.60126835	     -1.15730208	    106.63912618	    -46.11679618	      0.08955624	     89.82930091	      1.56781707	     20.79243772	      7.67357962	      0.00000000	    102.70077455	    -40.13805061	     -4.56504724	     83.04911092	      1.44948043	     16.40949339	     18.26729565	      0.00000000	      0.00000000	      0.00000000	      0.00000000	     44.91313064	    -15.11733282	     44.91313064	     74.99846917	     44.99998884	      0.00000000	      0.00000000	     44.91313064	    -15.11733282	     44.91313064	     74.99846917	     44.99998884	      0.00000000	      0.00000000
      4.61000000	    -39.93164935	      2.22979554	      2.42279507	      0.07840974	      0.59970428	     -1.15736839	    107.02358685	    -46.17910713	      0.28640938	     90.05770657	      1.57180350	     20.84010364	      7.72295846	      0.00000000	    103.06355939	    -40.12423066	     -4.38333397	     83.27639331	      1.45344725	     16.44696151	     18.21231677	      0.00000000	      0.00000000	      0.00000000	      0.00000000	     44.91489537	    -15.11359759	     44.91489537	     74.99856355	     44.99999009	      0.00000000	      0.00000000	     44.91489537	    -15.11359759	     44.91489537	     74.99856355	     44.99999009	      0.00000000	      0.00000000
      4.61500000	    -39.77108867	      2.30635041	      2.25191780	      0.07852640	      0.59889834	     -1.15693430	    107.05353435	    -46.03909140	      0.41172143	     90.23264542	      1.57485676	     20.91001635	      7.74438872	      0.00000000	    103.03007375	    -40.44151800	     -4.37454494	     83.49400634	      1.45724532	     16.57199438	     18.43720842	      0.00000000	      0.00000000	      0.00000000	      0.00000000	     44.91679707	    -15.10962628	     44.91679707	     74.99866104	     44.99999129	      0.00000000	      0.00000000	     44.91679707	    -15.10962628	     44.91679707	     74.99866104	     44.99999129	      0.00000000	      0.00000000
      4.62000000	    -40.04883765	      2.32267270	      2.40953050	      0.07812514	      0.59692762	     -1.15725536	    107.74972350	    -46.21411562	      0.76789091	     90.50018329	      1.57952617	     20.93200919	      7.81004313	      0.00000000	    103.52349974	    -40.24338711	     -4.22078495	     83.70197900	      1.46087512	     16.58051409	     18.26008774	      0.00000000	      0.00000000	      0.00000000	      0.00000000	     44.91876700	    -15.10554620	     44.91876700	     74.99875969	     44.99999247	      0.00000000	      0.00000000	     44.91876700	    -15.10554620	     44.91876700	     74.99875969	     44.99999247	      0.00000000	      0.00000000
      4.62500000	    -39.94734544	      2.44733271	      1.95579379	      0.07813560	      0.59592836	     -1.15609412	    107.80737945	    -45.68110607	      0.88078797	     90.68419282	      1.58273774	     20.97410356	      7.81610550	      0.00000000	    103.58155116	    -40.92330791	     -4.15944386	     83.92114530	      1.46470030	     16.74065814	     18.74790179	      0.00000000	      0.00000000	      0.00000000	      0.00000000	     44.92058780	    -15.10184101	     44.92058780	     74.99884591	     44.99999340	      0.00000000	      0.00000000	     44.92058780	    -15.10184101	     44.92058780	     74.99884591	     44.99999340	      0.00000000	      0.00000000
      4.63000000	    -40.16016416	      2.40986201	      2.32063217	      0.07782567	      0.59420936	     -1.15705040	    108.40839441	    -46.15299999	      1.19565915	     90.89247716	      1.58637299	     20.99274287	      7.84947691	      0.00000000	    104.00696346	    -40.45565431	     -4.03057189	     84.12895892	      1.46832733	     16.71490412	     18.37103949	      0.00000000	      0.00000000	      0.00000000	      0.00000000	     44.92252227	    -15.09795565	     44.92252227	     74.99893394	     44.99999430	      0.00000000	      0.00000000	     44.92252227	    -15.09795565	     44.92252227	     74.99893394	     44.99999430	      0.00000000	      0.00000000
      4.63500000	    -40.03753126	      2.50210464	      2.02865944	      0.07787531	      0.59323357	     -1.15633207	    108.46882032	    -45.84430819	      1.30822904	     91.09196196	      1.58985466	     21.08748433	      7.87045256	      0.00000000	    104.05008706	    -40.91097643	     -3.96651849	     84.37233003	      1.47257496	     16.85322588	     18.60354842	      0.00000000	      0.00000000	      0.00000000	      0.00000000	     44.92379570	    -15.09544245	     44.92379570	     74.99898878	     44.99999481	      0.00000000	      0.00000000	     44.92379570	    -15.09544245	     44.92379570	     74.99898878	     44.99999481	      0.00000000	      0.00000000
      4.64000000	    -40.33623639	      2.45317442	      2.35923246	      0.07743504	      0.59127079	     -1.15718998	    109.19140008	    -46.25576384	      1.65072673	     91.34054621	      1.59419327	     21.08029896	      7.99735750	      0.00000000	    104.58772281	    -40.45806821	     -3.77437920	     84.57219851	      1.47606332	     16.83175404	     18.28707309	      0.00000000	      0.00000000	      0.00000000	      0.00000000	     44.92579278	    -15.09151020	     44.92579278	     74.99907441	     44.99999561	      0.00000000	      0.00000000	     44.92579278	    -15.09151020	     44.92579278	     74.99907441	     44.99999561	      0.00000000	      0.00000000
      4.64500000	    -40.41136507	      2.45286195	      2.36115168	      0.07726431	      0.58987632	     -1.15727188	    109.51491526	    -46.29643299	      1.82312860	     91.54006848	      1.59767559	     21.12998593	      8.05883644	      0.00000000	    104.88878974	    -40.47733748	     -3.61765266	     84.79201585	      1.47989986	     16.88738097	     18.26691951	      0.00000000	      0.00000000	      0.00000000	      0.00000000	     44.92780098	    -15.08761902	     44.92780098	     74.99915625	     44.99999631	      0.00000000	      0.00000000	     44.92780098	    -15.08761902	     44.92780098	     74.99915625	     44.99999631	      0.00000000	      0.00000000
      4.65000000	    -40.47770112	      2.46384144	      2.35447734	      0.07708838	      0.58846948	     -1.15731848	    109.84849084	    -46.32245872	      2.01323811	     91.74914851	      1.60132473	     21.16014643	      8.10329417	      0.00000000	    105.17330328	    -40.51050305	     -3.47009986	     85.01545743	      1.48379965	     16.96214608	     18.27221315	      0.00000000	      0.00000000	      0.00000000	      0.00000000	     44.92972799	    -15.08394105	     44.92972799	     74.99923120	     44.99999690	      0.00000000	      0.00000000	     44.92972799	    -15.08394105	     44.92972799	     74.99923120	     44.99999690	      0.00000000	      0.00000000
      4.65500000	    -40.51408681	      2.52104343	      2.35067040	      0.07694746	      0.58715459	     -1.15731418	    110.19687558	    -46.34397529	      2.26463603	     91.95826079	      1.60497443	     21.21514022	      8.16776863	      0.00000000	    105.36792358	    -40.56497204	     -3.41491125	     85.22868701	      1.48752121	     17.01495059	     18.25837294	      0.00000000	      0.00000000	      0.00000000	      0.00000000	     44.93150446	    -15.08060698	     44.93150446	     74.99929675	     44.99999737	      0.00000000	      0.00000000	     44.93150446	    -15.08060698	     44.93150446	     74.99929675	     44.99999737	      0.00000000	      0.00000000
